# xmcd
#
# Track frame offsets:
#	150
#	12220
#	23857
#	34753
#	46176
#	57860
#	66730
#	75509
#	86927
#	101597
#	113746
#	123499
#	132964
#	144040
#	157752
#	169821
#	181581
#	190123
#	199019
#	212258
#	223736
#	234265
#	247328
#	258410
#	268887
#	281435
#	289277
#
# Disc length: 4009 seconds
#
# Revision: 1
# Processed by: cddbd v1.5.1PL0 Copyright (c) Steve Scherf et al.
# Submitted via: audiograbber 1.83.01
#
DISCID=810fa71b
DTITLE=Various Artist - Whip! Wobble and Grind! 1962-1964
DYEAR=1900
DGENRE=
TTITLE0=Johnny Talbot - Whatcha Wanna Do Pt. 1
TTITLE1=Spyder Turner - Ride in My 322
TTITLE2=Larry Birdsong and The Larryettes - Continental Time
TTITLE3=The Fabulous Playboys - Honky Tonk Woman
TTITLE4=Brice Coefield - Cha-Cha Twist
TTITLE5=The Antennas - Be Yourself
TTITLE6=The Virgos - Do The Sway
TTITLE7=Billy "The Kid" Emerson - The Whip Part 1
TTITLE8=Sonny Dublin - The Pigmy Grind Part 1
TTITLE9=The Metronomes - Chicky Goo
TTITLE10=Hector and The Eastmen - Wobble Lou
TTITLE11=The Parkettes - El Matador
TTITLE12=Larry Hale - Shout and Do the Duck
TTITLE13=Johnny Adams - Spunky Onions
TTITLE14=Emanuel Lasky - The Monkey
TTITLE15=Lester Young and His California Playboys - Wobble Time
TTITLE16=Tangiers - Doin' the Waddle
TTITLE17=Cymbols - Dip Baby Dip
TTITLE18=Oscar Bishop - Oscar's Dog
TTITLE19=Clarence Green and The Rhythmaires - Keep a Workin
TTITLE20=Sherman Evans - Looking For My Baby
TTITLE21=The Flame'n'King - The Whip
TTITLE22=Ronnie Love - Chills and Fever
TTITLE23=Dukays - Say You Love Me
TTITLE24=Johnny Brooks - Pig Latin
TTITLE25=The Combinations - Voodoo
TTITLE26=Willie and Doris Jolhet - I Can't Stand It
EXTD=
EXTT0=
EXTT1=
EXTT2=
EXTT3=
EXTT4=
EXTT5=
EXTT6=
EXTT7=
EXTT8=
EXTT9=
EXTT10=
EXTT11=
EXTT12=
EXTT13=
EXTT14=
EXTT15=
EXTT16=
EXTT17=
EXTT18=
EXTT19=
EXTT20=
EXTT21=
EXTT22=
EXTT23=
EXTT24=
EXTT25=
EXTT26=
PLAYORDER=
